<?xml version="1.0" encoding="utf-8"?>
<!-- Generator: Adobe Illustrator 16.0.4, SVG Export Plug-In . SVG Version: 6.00 Build 0)  -->
<!DOCTYPE svg PUBLIC "-//W3C//DTD SVG 1.1//EN" "http://www.w3.org/Graphics/SVG/1.1/DTD/svg11.dtd">
<svg version="1.1" id="Layer_1" xmlns="http://www.w3.org/2000/svg" xmlns:xlink="http://www.w3.org/1999/xlink" x="0px" y="0px"
	 width="600px" height="124px" viewBox="0 0 600 124" enable-background="new 0 0 600 124" xml:space="preserve">
<g>
	<path fill="#3A1415" d="M190.85,37.32c-0.27,0.82-0.63,2.02-1.06,3.61c-0.44,1.59-0.9,3.42-1.39,5.5c2.95-1.91,5.32-4.1,7.1-6.56
		c1.78-2.46,2.66-4.92,2.66-7.38c0-1.48-0.44-2.21-1.31-2.21c-0.77,0-1.75,0.59-2.95,1.76C192.69,33.21,191.68,34.97,190.85,37.32
		L190.85,37.32z M159.85,94.41c0.71-0.27,1.53-0.55,2.46-0.82c0.93-0.27,2-1.04,3.2-2.3c-0.82-0.27-1.45-0.41-1.89-0.41
		c-1.97,0-3.4,0.29-4.31,0.86c-0.9,0.57-1.35,1.13-1.35,1.68c0,0.38,0.16,0.67,0.49,0.86C158.79,94.48,159.25,94.52,159.85,94.41
		L159.85,94.41z M173.47,57.33c-2.79,0-5.04-0.3-6.77-0.9c-1.72-0.6-2.88-1.37-3.49-2.3c-0.27-0.38-0.52-0.96-0.74-1.72
		c-0.22-0.77-0.14-1.61,0.25-2.54c0.77,0.6,1.6,1.05,2.5,1.35c0.9,0.3,1.73,0.51,2.5,0.62c0.93,0.16,1.83,0.25,2.71,0.25
		c1.64,0,3.24-0.14,4.8-0.41c1.56-0.27,3.1-0.66,4.63-1.15c0.66-3.28,1.3-6.23,1.93-8.86c0.63-2.62,1.35-4.76,2.17-6.4
		c0.87-1.8,1.79-3.43,2.75-4.88c0.95-1.45,2.02-2.68,3.2-3.69c1.18-1.01,2.47-1.79,3.9-2.34c1.42-0.55,3.06-0.82,4.92-0.82
		c1.37,0,2.45,0.27,3.24,0.82c0.79,0.55,1.39,1.23,1.8,2.05c0.41,0.82,0.66,1.71,0.74,2.67c0.08,0.96,0.12,1.85,0.12,2.67
		c0,1.8-0.44,3.77-1.31,5.91c-0.88,2.13-2.11,4.24-3.69,6.32c-1.59,2.08-3.49,4.05-5.7,5.91c-2.21,1.86-4.69,3.39-7.42,4.59
		c-0.93,3.61-1.84,7.18-2.75,10.7s-1.79,6.44-2.67,8.73c-0.77,2.13-1.74,4.51-2.91,7.14c-1.18,2.63-2.61,5.14-4.31,7.55
		c1.04,0.66,2.09,1.34,3.16,2.05c1.07,0.71,2.15,1.35,3.24,1.93c1.09,0.57,2.2,1.05,3.32,1.44c1.12,0.38,2.31,0.57,3.57,0.57
		c1.31-0.05,2.6-0.25,3.85-0.57c1.09-0.28,2.24-0.73,3.45-1.36c1.2-0.63,2.32-1.52,3.36-2.66c0.38,0.66,0.51,1.64,0.37,2.95
		c-0.14,1.31-0.56,2.62-1.27,3.94c-0.71,1.31-1.72,2.46-3.03,3.45c-1.31,0.98-2.95,1.48-4.92,1.48c-2.08,0-4.02-0.29-5.82-0.86
		c-1.81-0.57-3.5-1.27-5.09-2.09c-1.59-0.82-3.08-1.71-4.47-2.67c-1.4-0.96-2.69-1.85-3.9-2.67c-1.64,1.59-3.44,2.87-5.41,3.86
		c-1.97,0.98-4.16,1.48-6.56,1.48c-1.91,0-3.45-0.53-4.59-1.6c-1.15-1.06-1.67-2.5-1.56-4.3c0.06-0.66,0.25-1.44,0.57-2.34
		c0.33-0.9,0.94-1.76,1.85-2.58c0.9-0.82,2.15-1.52,3.73-2.09c1.59-0.57,3.64-0.86,6.15-0.86c0.93,0,1.82,0.1,2.67,0.29
		c0.85,0.19,1.68,0.42,2.5,0.7c0.6-1.1,1.2-2.35,1.8-3.78c0.6-1.42,1.26-3.03,1.97-4.84c1.26-3.44,2.35-6.9,3.28-10.38
		c0.93-3.47,1.72-6.85,2.38-10.13c-0.77,0.16-1.57,0.27-2.42,0.33C175.2,57.31,174.34,57.33,173.47,57.33"/>
	<path fill="#3A1415" d="M217.43,55.53c-0.66,0-1.43,0.33-2.34,0.98c-0.9,0.66-1.79,1.6-2.66,2.83c-0.88,1.23-1.7,2.74-2.46,4.51
		c-0.77,1.78-1.34,3.81-1.72,6.11c0.66-0.49,1.37-1,2.13-1.52c0.77-0.52,1.53-1.08,2.3-1.68c2.35-1.8,3.99-3.39,4.92-4.76
		c0.93-1.37,1.45-2.54,1.56-3.53c0.11-1.04,0-1.79-0.33-2.26C218.5,55.76,218.03,55.53,217.43,55.53L217.43,55.53z M238.43,68.16
		c-1.64,2.41-3.5,4.74-5.58,7.01s-4.28,4.29-6.6,6.07c-2.33,1.78-4.7,3.21-7.14,4.3c-2.43,1.09-4.8,1.64-7.09,1.64
		c-1.2,0-2.5-0.29-3.9-0.86c-1.39-0.57-2.67-1.46-3.81-2.66c-1.15-1.2-2.06-2.76-2.75-4.68c-0.68-1.91-0.89-4.24-0.61-6.97
		c0.22-2.24,0.92-4.61,2.09-7.1c1.18-2.49,2.63-4.77,4.35-6.85c1.72-2.08,3.66-3.8,5.82-5.17c2.16-1.37,4.33-2.05,6.52-2.05
		c2.08,0,3.58,0.52,4.51,1.56c0.93,1.04,1.34,2.32,1.23,3.85c-0.16,1.7-0.64,3.25-1.44,4.68c-0.79,1.42-1.74,2.71-2.83,3.86
		c-1.09,1.15-2.26,2.19-3.49,3.12c-1.23,0.93-2.39,1.78-3.49,2.54c-1.2,0.82-2.35,1.6-3.44,2.34c-1.1,0.74-2.05,1.41-2.87,2.01
		c0.06,1.37,0.3,2.51,0.74,3.44c0.44,0.93,0.98,1.68,1.64,2.26c0.66,0.57,1.41,0.98,2.26,1.23c0.85,0.25,1.71,0.37,2.58,0.37
		c1.86,0,3.8-0.59,5.82-1.76c2.02-1.18,4.01-2.6,5.95-4.26c1.94-1.67,3.75-3.41,5.41-5.21c1.67-1.81,3.05-3.37,4.14-4.68
		c0.38-0.44,0.78-0.7,1.19-0.78c0.41-0.08,0.74-0.03,0.98,0.17c0.25,0.19,0.37,0.52,0.37,0.98C239,67.03,238.81,67.56,238.43,68.16"
		/>
	<path fill="#3A1415" d="M279.6,64.72c1.91-0.93,3.81-2.08,5.7-3.45c1.89-1.37,3.6-3.01,5.13-4.92c1.53-1.91,2.82-4.09,3.85-6.52
		c1.04-2.43,1.7-5.18,1.97-8.24c0.22-2.73,0.04-5.02-0.53-6.85c-0.57-1.83-1.42-3.29-2.54-4.39c-1.12-1.09-2.39-1.87-3.81-2.34
		c-1.42-0.46-2.84-0.7-4.26-0.7c-1.31,0-2.64,0.19-3.98,0.57c-1.34,0.38-2.64,0.88-3.9,1.48c0.16,0.06,0.36,0.19,0.57,0.41
		c0.11,0.16,0.23,0.37,0.37,0.61c0.13,0.25,0.23,0.51,0.29,0.78c-1.26,5.31-2.27,9.73-3.04,13.29c-0.77,3.56-1.39,6.45-1.89,8.7
		c-0.6,2.62-1.04,4.73-1.31,6.31c-0.05,0.22-0.1,0.44-0.12,0.66c-0.03,0.22-0.07,0.47-0.12,0.74c1.2,0.27,2.46,0.7,3.77,1.27
		C277.06,62.71,278.35,63.57,279.6,64.72L279.6,64.72z M270.83,67.5c0.66-0.11,1.31-0.23,1.97-0.37c0.66-0.14,1.37-0.31,2.13-0.53
		c-0.93-0.87-2.16-1.42-3.69-1.64C271.07,65.84,270.94,66.68,270.83,67.5L270.83,67.5z M304.38,42.16
		c-0.22,2.35-0.83,4.81-1.85,7.38c-1.01,2.57-2.42,5.06-4.22,7.46c-1.81,2.41-3.99,4.65-6.56,6.73c-2.57,2.08-5.5,3.77-8.78,5.08
		c0.49,0.93,0.96,1.92,1.39,2.95c0.44,1.04,0.82,2.21,1.15,3.53c0.49,1.75,0.91,3.55,1.27,5.42c0.35,1.86,0.66,3.66,0.9,5.41
		c0.25,1.75,0.47,3.38,0.66,4.88c0.19,1.5,0.34,2.75,0.45,3.73c0.22,1.64,0.75,2.8,1.6,3.49c0.85,0.68,1.81,1.07,2.87,1.15
		c1.07,0.08,2.13-0.04,3.2-0.37c1.07-0.33,1.9-0.68,2.5-1.07c-0.05,0.06-0.36,0.53-0.9,1.44c-0.55,0.9-1.29,1.86-2.21,2.87
		c-0.93,1.01-2.04,1.89-3.32,2.62c-1.29,0.74-2.72,0.97-4.31,0.7c-1.09-0.17-2.06-0.53-2.91-1.11c-0.85-0.57-1.59-1.42-2.21-2.54
		c-0.63-1.12-1.14-2.56-1.52-4.31c-0.38-1.75-0.63-3.88-0.74-6.4c-0.11-3.39-0.23-6.63-0.37-9.72c-0.14-3.09-0.73-5.95-1.76-8.57
		c-0.16-0.44-0.33-0.86-0.49-1.27c-0.16-0.41-0.35-0.78-0.57-1.11c-2.24,0.55-4.76,0.9-7.55,1.06c-0.38,2.08-0.79,4.21-1.23,6.4
		c-0.44,2.19-0.89,4.32-1.35,6.4c-0.47,2.08-0.96,4.03-1.48,5.86c-0.52,1.83-1.03,3.4-1.52,4.72c-0.55,1.37-1.25,2.48-2.09,3.32
		c-0.85,0.85-2.2,1.27-4.06,1.27c-1.09,0-2.05-0.25-2.87-0.74c-0.82-0.49-1.61-1.18-2.38-2.05c0.22-0.17,0.56-0.43,1.03-0.78
		c0.46-0.36,1.01-1.07,1.64-2.13c0.63-1.07,1.31-2.58,2.05-4.55c0.74-1.97,1.49-4.62,2.25-7.96c0.27-1.37,0.64-2.97,1.11-4.8
		c0.46-1.83,0.97-3.84,1.52-6.03c-2.19-1.2-3.2-2.82-3.03-4.84c0.11-1.26,0.68-2.32,1.72-3.2c1.04-0.87,2.3-1.48,3.77-1.81
		c0.71-2.84,1.44-5.71,2.18-8.61c0.74-2.9,1.43-5.62,2.09-8.16c0.66-2.54,1.26-4.84,1.81-6.89c0.55-2.05,0.98-3.68,1.31-4.88
		c-0.98,0.66-1.97,1.39-2.95,2.21c-0.87,0.71-1.82,1.52-2.83,2.42c-1.01,0.9-1.96,1.85-2.83,2.83c-0.44-0.33-0.79-0.68-1.07-1.07
		c-0.27-0.38-0.49-0.71-0.66-0.99c-0.22-0.33-0.38-0.68-0.49-1.06c-0.38-0.77-0.57-1.6-0.57-2.5c0-0.9,0.66-1.82,1.97-2.75
		c0.71-0.49,1.79-1.2,3.24-2.13c1.45-0.93,3.24-1.83,5.37-2.71c2.13-0.87,4.61-1.64,7.42-2.3c2.82-0.66,5.95-0.98,9.39-0.98
		c3.45,0,6.23,0.68,8.37,2.05c2.13,1.37,3.77,3.03,4.92,5c1.15,1.97,1.9,4.05,2.26,6.23C304.44,38.61,304.54,40.52,304.38,42.16"/>
	<path fill="#3A1415" d="M319.3,55.53c-0.66,0-1.44,0.33-2.34,0.98c-0.9,0.66-1.79,1.6-2.67,2.83c-0.88,1.23-1.7,2.74-2.46,4.51
		c-0.77,1.78-1.34,3.81-1.72,6.11c0.66-0.49,1.37-1,2.13-1.52c0.76-0.52,1.53-1.08,2.29-1.68c2.35-1.8,3.99-3.39,4.92-4.76
		c0.93-1.37,1.45-2.54,1.56-3.53c0.11-1.04,0-1.79-0.33-2.26C320.37,55.76,319.9,55.53,319.3,55.53L319.3,55.53z M340.3,68.16
		c-1.64,2.41-3.5,4.74-5.58,7.01c-2.08,2.27-4.28,4.29-6.6,6.07c-2.33,1.78-4.7,3.21-7.14,4.3c-2.43,1.09-4.8,1.64-7.09,1.64
		c-1.21,0-2.5-0.29-3.9-0.86c-1.4-0.57-2.67-1.46-3.82-2.66c-1.15-1.2-2.06-2.76-2.75-4.68c-0.68-1.91-0.89-4.24-0.61-6.97
		c0.22-2.24,0.91-4.61,2.09-7.1c1.18-2.49,2.62-4.77,4.35-6.85c1.72-2.08,3.66-3.8,5.82-5.17c2.16-1.37,4.33-2.05,6.52-2.05
		c2.08,0,3.58,0.52,4.51,1.56c0.93,1.04,1.34,2.32,1.23,3.85c-0.16,1.7-0.64,3.25-1.43,4.68c-0.79,1.42-1.74,2.71-2.83,3.86
		c-1.09,1.15-2.25,2.19-3.48,3.12c-1.23,0.93-2.39,1.78-3.49,2.54c-1.21,0.82-2.35,1.6-3.45,2.34c-1.09,0.74-2.05,1.41-2.87,2.01
		c0.05,1.37,0.3,2.51,0.74,3.44c0.43,0.93,0.98,1.68,1.64,2.26c0.66,0.57,1.41,0.98,2.26,1.23c0.85,0.25,1.71,0.37,2.58,0.37
		c1.86,0,3.8-0.59,5.82-1.76c2.02-1.18,4.01-2.6,5.95-4.26c1.94-1.67,3.75-3.41,5.42-5.21c1.67-1.81,3.05-3.37,4.14-4.68
		c0.38-0.44,0.78-0.7,1.19-0.78c0.41-0.08,0.74-0.03,0.98,0.17c0.25,0.19,0.37,0.52,0.37,0.98
		C340.88,67.03,340.68,67.56,340.3,68.16"/>
	<path fill="#3A1415" d="M355.64,70.62c0.22-1.04,0.42-2.08,0.62-3.12c0.19-1.04,0.42-2.1,0.7-3.2c-0.11,0.05-0.2,0.11-0.29,0.17
		c-0.08,0.05-0.18,0.11-0.29,0.16c-0.6,0.27-1.01,0.26-1.23-0.04c-0.22-0.3-0.33-0.78-0.33-1.44c0-0.33-0.03-0.92-0.08-1.76
		c-0.06-0.85-0.21-1.72-0.45-2.62c-0.24-0.9-0.61-1.69-1.11-2.38c-0.49-0.68-1.18-1.03-2.05-1.03c-1.26,0-2.54,0.64-3.86,1.93
		c-1.31,1.29-2.54,2.84-3.69,4.68c-1.15,1.83-2.1,3.79-2.87,5.86c-0.77,2.08-1.2,3.94-1.31,5.58c-0.11,2.62,0.22,4.51,0.99,5.66
		c0.76,1.15,1.81,1.72,3.12,1.72c0.98,0,2.06-0.38,3.24-1.15c1.17-0.76,2.32-1.69,3.44-2.79c1.12-1.09,2.16-2.21,3.12-3.36
		C354.26,72.34,355.04,71.39,355.64,70.62L355.64,70.62z M360.48,69.55c-0.27,1.7-0.53,3.31-0.78,4.84
		c-0.25,1.53-0.4,2.76-0.45,3.69c-0.06,1.37,0.19,2.35,0.74,2.95c0.55,0.6,1.15,0.9,1.8,0.9c0.76,0,1.71-0.38,2.83-1.15
		c1.12-0.76,2.31-1.72,3.57-2.87c1.26-1.15,2.52-2.41,3.78-3.77c1.25-1.37,2.42-2.67,3.48-3.9c1.07-1.23,1.97-2.31,2.71-3.24
		c0.74-0.93,1.24-1.53,1.52-1.8c0.33-0.33,0.67-0.52,1.03-0.57c0.35-0.05,0.64,0,0.86,0.16c0.22,0.17,0.33,0.46,0.33,0.9
		s-0.22,0.98-0.65,1.64c-0.66,1.04-1.51,2.26-2.54,3.65c-1.04,1.4-2.19,2.83-3.45,4.31c-1.26,1.48-2.58,2.93-3.98,4.35
		c-1.4,1.42-2.79,2.68-4.18,3.77c-1.39,1.09-2.73,1.98-4.02,2.67c-1.28,0.68-2.45,1.03-3.49,1.03c-0.77,0-1.49-0.22-2.17-0.66
		c-0.68-0.44-1.3-1.01-1.84-1.72c-0.55-0.71-0.97-1.5-1.27-2.38c-0.3-0.88-0.42-1.75-0.37-2.63c0.05-0.38,0.14-1.04,0.25-1.97
		c-2.3,2.57-4.61,4.61-6.93,6.11c-2.33,1.5-4.55,2.25-6.68,2.25c-0.77,0-1.59-0.19-2.46-0.57c-0.88-0.38-1.66-1.01-2.34-1.88
		c-0.69-0.87-1.25-2.02-1.68-3.45c-0.44-1.42-0.6-3.14-0.49-5.17c0.16-3.17,0.79-6.18,1.89-9.02c1.09-2.84,2.47-5.32,4.14-7.42
		c1.67-2.1,3.55-3.77,5.66-5c2.1-1.23,4.22-1.85,6.36-1.85c0.93,0,1.78,0.23,2.54,0.7c0.76,0.47,1.42,1.07,1.97,1.81
		c0.54,0.74,1,1.54,1.35,2.42c0.36,0.88,0.62,1.7,0.78,2.46c0.38-1.59,0.74-3.14,1.06-4.68c0.33-1.53,0.66-2.98,0.98-4.35
		c0.55-2.02,1.12-4.21,1.72-6.56c0.55-2.02,1.18-4.35,1.89-6.97c0.71-2.62,1.5-5.38,2.38-8.28c0.54-0.44,1.07-0.77,1.56-0.98
		c0.49-0.22,0.96-0.38,1.39-0.49c0.49-0.16,0.96-0.25,1.39-0.25c0.55,0,1.04,0.07,1.48,0.2c0.44,0.14,0.81,0.49,1.11,1.07
		c0.3,0.57,0.51,1.44,0.62,2.58c0.11,1.15,0.11,2.71,0,4.68c-0.11,2.41-0.53,5.03-1.27,7.88s-1.71,5.78-2.91,8.82
		c-1.2,3.04-2.58,6.07-4.14,9.1C363.96,63.94,362.28,66.82,360.48,69.55"/>
	<path fill="#3A1415" d="M415.27,57.42c-0.11,0.55-0.23,1.1-0.37,1.64c-0.14,0.55-0.29,1.12-0.45,1.72
		c0.66-0.71,1.76-1.37,3.32-1.97c1.56-0.6,3.05-0.9,4.47-0.9c0.77,0,1.5,0.04,2.22,0.12c0.71,0.08,1.39,0.18,2.05,0.29
		c1.53-0.98,3.01-2.26,4.43-3.81c1.42-1.56,2.67-3.23,3.73-5c1.06-1.78,1.94-3.59,2.63-5.45c0.68-1.86,1.11-3.58,1.27-5.17
		c0.33-3.77-0.31-6.57-1.93-8.41c-1.61-1.83-3.9-2.75-6.85-2.75c-1.97,0-4.02,0.36-6.15,1.07c-0.44,1.42-0.99,3.19-1.64,5.29
		c-0.66,2.11-1.35,4.42-2.09,6.93c-0.74,2.52-1.52,5.17-2.34,7.96C416.75,51.76,415.98,54.57,415.27,57.42L415.27,57.42z
		 M413.88,62.83c-0.77,2.95-1.53,6.15-2.29,9.6c-0.71,2.95-1.48,6.38-2.3,10.3c-0.82,3.91-1.69,8.08-2.62,12.51
		c0.33,0.27,0.76,0.46,1.31,0.58c0.55,0.11,1.09,0.22,1.64,0.33c0.6,0.11,1.26,0.17,1.97,0.17c2.46,0,4.96-0.51,7.5-1.52
		c2.54-1.01,4.88-2.45,7.01-4.31c2.13-1.86,3.93-4.12,5.37-6.77c1.45-2.65,2.31-5.62,2.58-8.9c0.11-1.48,0.01-2.8-0.29-3.98
		c-0.3-1.18-0.74-2.24-1.31-3.2c-0.57-0.96-1.23-1.8-1.97-2.54c-0.74-0.74-1.52-1.38-2.34-1.93c-2.51,1.37-5.28,2.51-8.28,3.44
		c-0.98,0.27-1.83,0.32-2.54,0.12c-0.71-0.19-1.31-0.49-1.8-0.9c-0.49-0.41-0.88-0.89-1.15-1.44
		C414.09,63.84,413.93,63.32,413.88,62.83L413.88,62.83z M442.42,77.51c-0.33,3.66-1.42,6.95-3.28,9.84
		c-1.86,2.9-4.23,5.34-7.1,7.34c-2.87,2-6.11,3.51-9.72,4.55c-3.61,1.04-7.33,1.56-11.16,1.56c-1.42,0-2.75-0.1-3.98-0.29
		c-1.23-0.19-2.34-0.42-3.32-0.7c-0.98-0.28-1.82-0.53-2.5-0.78c-0.68-0.25-1.16-0.45-1.43-0.62c-0.49-0.27-0.89-0.62-1.19-1.02
		c-0.3-0.41-0.48-1-0.53-1.76c-0.05-0.44-0.08-0.78-0.08-1.03c0-0.24,0.03-0.51,0.08-0.78c0.06-0.27,0.15-0.64,0.29-1.11
		c0.13-0.47,0.31-1.11,0.53-1.93c0.11-0.49,0.53-2.04,1.27-4.64c0.74-2.59,1.63-5.77,2.67-9.51c1.04-3.75,2.17-7.81,3.41-12.18
		c1.23-4.37,2.42-8.61,3.57-12.71c1.15-4.1,2.18-7.8,3.12-11.11c0.93-3.31,1.61-5.75,2.05-7.34c-0.77,0.55-1.52,1.12-2.26,1.72
		c-0.74,0.6-1.49,1.26-2.25,1.97c-0.82,0.77-1.63,1.03-2.42,0.78c-0.8-0.25-1.35-0.92-1.68-2.01c-0.11-0.55-0.19-1.12-0.25-1.72
		c-0.05-0.49-0.04-1.05,0.04-1.68c0.08-0.63,0.29-1.24,0.61-1.85c1.81-1.09,3.57-2.02,5.29-2.79c1.72-0.77,3.38-1.45,4.96-2.05
		c0.33-0.93,0.7-1.64,1.11-2.13c0.41-0.49,0.83-0.82,1.27-0.98c0.44-0.16,0.9-0.22,1.39-0.16c0.49,0.06,1.01,0.14,1.56,0.25
		c1.2,0.27,2,0.66,2.38,1.15c0.77-0.11,1.5-0.19,2.22-0.25c0.71-0.05,1.45-0.08,2.21-0.08c3.17,0,5.93,0.41,8.28,1.23
		c2.35,0.82,4.28,1.93,5.78,3.32c1.5,1.39,2.58,3.02,3.24,4.88c0.66,1.86,0.9,3.83,0.74,5.91c-0.16,1.8-0.64,3.68-1.44,5.62
		c-0.79,1.94-1.84,3.85-3.16,5.74c-1.31,1.89-2.84,3.72-4.59,5.5c-1.75,1.78-3.69,3.4-5.82,4.88c1.69,0.98,3.2,2.13,4.51,3.45
		c1.31,1.31,2.41,2.74,3.28,4.27c0.88,1.53,1.5,3.09,1.89,4.68S442.53,76.03,442.42,77.51"/>
	<path fill="#3A1415" d="M446.44,84.81c-0.38,0.6-0.81,1-1.27,1.19c-0.46,0.19-0.87,0.22-1.23,0.08c-0.36-0.14-0.59-0.42-0.7-0.86
		c-0.11-0.44,0-0.98,0.33-1.64c0.16-0.33,0.53-1.07,1.11-2.21c0.58-1.15,1.26-2.53,2.05-4.14c0.79-1.61,1.65-3.36,2.58-5.25
		c0.93-1.89,1.82-3.68,2.66-5.37c0.85-1.69,1.63-3.21,2.34-4.55c0.71-1.34,1.23-2.31,1.56-2.91c-0.6-0.55-1.01-0.94-1.23-1.19
		c-0.22-0.25-0.38-0.78-0.49-1.6c-0.11-0.71,0.05-1.64,0.49-2.79c0.44-1.15,1.01-2.26,1.73-3.32c0.71-1.07,1.5-1.98,2.38-2.75
		c0.88-0.76,1.72-1.15,2.54-1.15c1.53,0,2.61,0.49,3.24,1.48c0.63,0.98,1,2,1.11,3.04c0.11,0.71,0.05,1.61-0.17,2.71
		c-0.22,1.09-0.63,2.08-1.23,2.95c0.16,0.11,0.38,0.23,0.66,0.37c0.27,0.14,0.71,0.2,1.31,0.2c0.87,0,1.49-0.05,1.85-0.16
		c0.35-0.11,0.91-0.16,1.68-0.16c0.93,0,1.7,0.23,2.3,0.7c0.6,0.46,1.09,1.04,1.48,1.72c0.38,0.68,0.67,1.42,0.86,2.21
		c0.19,0.79,0.31,1.52,0.37,2.17c0.16,1.37-0.19,2.79-1.07,4.26c-0.87,1.48-1.94,3.09-3.2,4.84c-0.76,1.09-1.53,2.33-2.29,3.69
		c-0.77,1.37-1.1,2.6-0.99,3.69c0.11,0.71,0.3,1.29,0.58,1.72c0.27,0.44,1.04,0.66,2.3,0.66c0.93,0,1.96-0.34,3.08-1.02
		c1.12-0.68,2.27-1.56,3.44-2.62c1.18-1.07,2.34-2.24,3.49-3.53c1.15-1.29,2.21-2.54,3.2-3.77c0.99-1.23,1.82-2.34,2.5-3.32
		c0.68-0.98,1.19-1.69,1.52-2.13c0.27-0.44,0.63-0.74,1.06-0.9c0.44-0.16,0.82-0.16,1.15,0c0.33,0.17,0.53,0.49,0.61,0.99
		c0.08,0.49-0.12,1.15-0.61,1.97c-0.33,0.55-0.89,1.42-1.68,2.63c-0.79,1.2-1.75,2.54-2.87,4.02c-1.12,1.48-2.36,2.99-3.73,4.55
		c-1.37,1.56-2.8,2.98-4.31,4.26c-1.51,1.29-3.01,2.34-4.51,3.16c-1.51,0.82-2.94,1.23-4.31,1.23c-1.42,0-2.6-0.27-3.53-0.82
		c-0.93-0.55-1.68-1.22-2.26-2.01c-0.57-0.79-0.98-1.67-1.23-2.62c-0.24-0.96-0.34-1.84-0.28-2.67c0.05-0.66,0.23-1.35,0.53-2.09
		c0.3-0.74,0.65-1.5,1.06-2.3c0.41-0.79,0.85-1.58,1.31-2.38c0.46-0.79,0.89-1.57,1.27-2.34c0.93-1.59,1.68-2.94,2.26-4.06
		c0.58-1.12,0.86-2.06,0.86-2.83c0-0.49-0.11-0.93-0.33-1.31c-0.22-0.38-0.58-0.57-1.07-0.57c-0.33,0-0.56,0.01-0.7,0.04
		c-0.14,0.03-0.27,0.04-0.41,0.04c-0.14,0-0.33,0.01-0.58,0.04c-0.24,0.03-0.61,0.04-1.11,0.04c-0.71,0-1.32-0.11-1.8-0.33
		c-0.49-0.22-0.96-0.38-1.39-0.49c-0.22,0.38-0.71,1.2-1.48,2.46c-0.77,1.26-1.65,2.74-2.66,4.43c-1.01,1.7-2.08,3.47-3.2,5.33
		c-1.12,1.86-2.17,3.6-3.16,5.21c-0.99,1.61-1.82,2.98-2.5,4.1C447.03,83.92,446.6,84.59,446.44,84.81"/>
	<path fill="#3A1415" d="M499.84,55.53c-0.66,0-1.44,0.33-2.34,0.98c-0.9,0.66-1.79,1.6-2.67,2.83c-0.88,1.23-1.7,2.74-2.46,4.51
		c-0.77,1.78-1.34,3.81-1.72,6.11c0.66-0.49,1.37-1,2.13-1.52c0.77-0.52,1.53-1.08,2.3-1.68c2.35-1.8,3.99-3.39,4.92-4.76
		c0.93-1.37,1.45-2.54,1.56-3.53c0.11-1.04,0-1.79-0.33-2.26C500.9,55.76,500.44,55.53,499.84,55.53L499.84,55.53z M520.83,68.16
		c-1.64,2.41-3.5,4.74-5.58,7.01c-2.08,2.27-4.28,4.29-6.61,6.07c-2.32,1.78-4.7,3.21-7.13,4.3c-2.43,1.09-4.8,1.64-7.09,1.64
		c-1.21,0-2.5-0.29-3.9-0.86c-1.4-0.57-2.67-1.46-3.82-2.66c-1.15-1.2-2.06-2.76-2.75-4.68c-0.68-1.91-0.89-4.24-0.61-6.97
		c0.22-2.24,0.91-4.61,2.09-7.1c1.18-2.49,2.62-4.77,4.35-6.85c1.72-2.08,3.66-3.8,5.82-5.17c2.16-1.37,4.33-2.05,6.52-2.05
		c2.08,0,3.58,0.52,4.51,1.56c0.93,1.04,1.34,2.32,1.23,3.85c-0.16,1.7-0.64,3.25-1.43,4.68c-0.79,1.42-1.74,2.71-2.83,3.86
		c-1.09,1.15-2.25,2.19-3.48,3.12c-1.23,0.93-2.39,1.78-3.49,2.54c-1.2,0.82-2.35,1.6-3.44,2.34c-1.1,0.74-2.05,1.41-2.87,2.01
		c0.05,1.37,0.3,2.51,0.74,3.44c0.44,0.93,0.99,1.68,1.64,2.26c0.66,0.57,1.41,0.98,2.25,1.23c0.85,0.25,1.71,0.37,2.59,0.37
		c1.86,0,3.8-0.59,5.82-1.76c2.02-1.18,4.01-2.6,5.95-4.26c1.94-1.67,3.75-3.41,5.42-5.21c1.67-1.81,3.05-3.37,4.14-4.68
		c0.38-0.44,0.78-0.7,1.19-0.78c0.41-0.08,0.74-0.03,0.98,0.17c0.25,0.19,0.37,0.52,0.37,0.98
		C521.41,67.03,521.22,67.56,520.83,68.16"/>
	<path fill="#3A1415" d="M532.97,72.51c0.27-1.09,0.6-2.38,0.98-3.85c0.38-1.48,0.71-2.9,0.99-4.27c0.27-1.37,0.48-2.5,0.62-3.4
		c0.14-0.9,0.1-1.33-0.12-1.27c-0.27,0.06-0.57,0.14-0.9,0.25c-0.27,0.11-0.63,0.19-1.07,0.25c-0.44,0.06-0.88,0.14-1.31,0.25
		c0.44-0.87,0.7-1.6,0.78-2.17c0.08-0.57,0.09-1.02,0.04-1.35c-0.05-0.38-0.16-0.68-0.33-0.9c-0.6-0.49-1.66-0.09-3.16,1.19
		c-1.5,1.29-3.24,3.65-5.21,7.09c-0.82,1.42-1.48,2.94-1.97,4.55c-0.49,1.61-0.83,3.13-1.03,4.55c-0.19,1.42-0.23,2.67-0.12,3.73
		c0.11,1.07,0.33,1.76,0.66,2.09c0.6,0.6,1.28,0.89,2.05,0.86c0.76-0.03,1.54-0.25,2.34-0.66c0.79-0.41,1.58-0.94,2.38-1.6
		c0.79-0.65,1.5-1.34,2.13-2.05c0.63-0.71,1.15-1.37,1.56-1.97C532.68,73.22,532.92,72.78,532.97,72.51L532.97,72.51z M557,68.9
		c-0.77,1.1-1.75,2.45-2.95,4.06c-1.2,1.61-2.45,3.23-3.73,4.84c-1.29,1.61-2.54,3.09-3.77,4.43c-1.23,1.34-2.26,2.28-3.08,2.83
		c-0.55,0.33-1.18,0.6-1.89,0.82c-0.71,0.22-1.44,0.35-2.17,0.41c-0.74,0.05-1.44,0.01-2.09-0.12c-0.66-0.13-1.23-0.37-1.72-0.7
		c-0.49-0.38-0.9-0.93-1.23-1.64c-0.27-0.6-0.53-1.4-0.78-2.38c-0.25-0.98-0.34-2.21-0.29-3.69c-1.31,2.19-2.76,3.87-4.35,5.04
		c-1.59,1.18-3.09,2.04-4.51,2.58c-1.64,0.6-3.28,0.96-4.92,1.07c-0.77,0-1.59-0.26-2.46-0.78c-0.88-0.52-1.61-1.34-2.22-2.46
		c-0.6-1.12-0.98-2.57-1.15-4.35c-0.16-1.78,0.05-3.89,0.66-6.36c0.76-3.33,1.98-6.37,3.65-9.11c1.67-2.73,3.49-5.07,5.45-7.01
		c1.97-1.94,3.91-3.4,5.82-4.39c1.91-0.98,3.5-1.42,4.76-1.31c1.48,0.27,2.68,0.71,3.61,1.31c0.77,0.55,1.27,1.35,1.52,2.42
		c0.25,1.07-0.2,2.48-1.35,4.22c0.77-0.16,1.41-0.27,1.93-0.33c0.52-0.05,0.92-0.08,1.19-0.08c0.33,0,0.54,0.03,0.66,0.08
		c0.05,0.11,0.08,0.34,0.08,0.7c0,0.36-0.08,1-0.25,1.93c-0.16,0.93-0.41,2.19-0.74,3.77c-0.33,1.58-0.76,3.64-1.31,6.15
		c-0.11,0.49-0.21,0.94-0.29,1.35c-0.08,0.41-0.16,0.82-0.25,1.23s-0.18,0.89-0.29,1.43c-0.11,0.55-0.25,1.23-0.41,2.05
		c-0.06,0.49-0.07,1.02-0.04,1.6c0.03,0.57,0.12,1.11,0.29,1.6c0.16,0.49,0.42,0.89,0.78,1.19c0.36,0.3,0.86,0.45,1.52,0.45
		c0.55,0,1.26-0.34,2.13-1.02c0.87-0.68,1.8-1.56,2.79-2.62c0.99-1.07,2.01-2.24,3.08-3.53c1.07-1.29,2.06-2.53,2.99-3.73
		c0.93-1.2,1.76-2.27,2.5-3.2c0.74-0.93,1.27-1.61,1.6-2.05c0.44-0.49,0.88-0.78,1.31-0.86c0.44-0.08,0.77,0.04,0.99,0.37
		c0.22,0.33,0.26,0.82,0.12,1.48S557.66,68.03,557,68.9"/>
	<g>
		<defs>
			<rect id="SVGID_1_" x="1" y="0.79" width="598" height="122.43"/>
		</defs>
		<clipPath id="SVGID_2_">
			<use xlink:href="#SVGID_1_"  overflow="visible"/>
		</clipPath>
		<path clip-path="url(#SVGID_2_)" fill="#3A1415" d="M572.75,70.62c0.22-1.04,0.42-2.08,0.61-3.12c0.19-1.04,0.42-2.1,0.7-3.2
			c-0.11,0.05-0.21,0.11-0.29,0.17c-0.08,0.05-0.18,0.11-0.29,0.16c-0.6,0.27-1.01,0.26-1.23-0.04c-0.22-0.3-0.33-0.78-0.33-1.44
			c0-0.33-0.03-0.92-0.08-1.76c-0.06-0.85-0.21-1.72-0.45-2.62c-0.25-0.9-0.62-1.69-1.11-2.38c-0.49-0.68-1.17-1.03-2.05-1.03
			c-1.26,0-2.54,0.64-3.86,1.93c-1.31,1.29-2.54,2.84-3.69,4.68c-1.15,1.83-2.11,3.79-2.87,5.86c-0.76,2.08-1.2,3.94-1.31,5.58
			c-0.11,2.62,0.22,4.51,0.98,5.66c0.77,1.15,1.8,1.72,3.12,1.72c0.98,0,2.06-0.38,3.24-1.15c1.17-0.76,2.32-1.69,3.44-2.79
			c1.12-1.09,2.16-2.21,3.12-3.36C571.37,72.34,572.15,71.39,572.75,70.62L572.75,70.62z M577.59,69.55
			c-0.27,1.7-0.53,3.31-0.78,4.84c-0.25,1.53-0.4,2.76-0.45,3.69c-0.06,1.37,0.19,2.35,0.74,2.95c0.55,0.6,1.15,0.9,1.81,0.9
			c0.76,0,1.71-0.38,2.83-1.15c1.12-0.76,2.31-1.72,3.57-2.87c1.26-1.15,2.52-2.41,3.77-3.77c1.26-1.37,2.42-2.67,3.48-3.9
			c1.07-1.23,1.97-2.31,2.71-3.24c0.74-0.93,1.24-1.53,1.52-1.8c0.33-0.33,0.67-0.52,1.02-0.57c0.36-0.05,0.64,0,0.86,0.16
			c0.22,0.17,0.33,0.46,0.33,0.9s-0.22,0.98-0.66,1.64c-0.66,1.04-1.5,2.26-2.54,3.65c-1.04,1.4-2.19,2.83-3.44,4.31
			c-1.26,1.48-2.58,2.93-3.98,4.35c-1.4,1.42-2.79,2.68-4.18,3.77c-1.39,1.09-2.74,1.98-4.02,2.67c-1.29,0.68-2.45,1.03-3.48,1.03
			c-0.77,0-1.49-0.22-2.17-0.66c-0.69-0.44-1.3-1.01-1.85-1.72c-0.55-0.71-0.97-1.5-1.27-2.38c-0.3-0.88-0.43-1.75-0.37-2.63
			c0.05-0.38,0.14-1.04,0.25-1.97c-2.3,2.57-4.61,4.61-6.93,6.11c-2.33,1.5-4.55,2.25-6.69,2.25c-0.77,0-1.59-0.19-2.46-0.57
			c-0.87-0.38-1.65-1.01-2.34-1.88c-0.68-0.87-1.24-2.02-1.68-3.45c-0.43-1.42-0.6-3.14-0.49-5.17c0.16-3.17,0.79-6.18,1.89-9.02
			c1.09-2.84,2.47-5.32,4.14-7.42c1.67-2.1,3.55-3.77,5.66-5c2.1-1.23,4.22-1.85,6.36-1.85c0.93,0,1.78,0.23,2.54,0.7
			c0.77,0.47,1.42,1.07,1.97,1.81c0.55,0.74,1,1.54,1.35,2.42c0.35,0.88,0.61,1.7,0.78,2.46c0.38-1.59,0.74-3.14,1.07-4.68
			c0.33-1.53,0.66-2.98,0.98-4.35c0.55-2.02,1.12-4.21,1.72-6.56c0.55-2.02,1.17-4.35,1.89-6.97c0.71-2.62,1.5-5.38,2.38-8.28
			c0.54-0.44,1.06-0.77,1.56-0.98c0.49-0.22,0.96-0.38,1.4-0.49c0.49-0.16,0.95-0.25,1.39-0.25c0.55,0,1.04,0.07,1.48,0.2
			c0.44,0.14,0.81,0.49,1.11,1.07c0.3,0.57,0.51,1.44,0.61,2.58c0.11,1.15,0.11,2.71,0,4.68c-0.11,2.41-0.53,5.03-1.27,7.88
			c-0.74,2.84-1.71,5.78-2.91,8.82c-1.2,3.04-2.58,6.07-4.14,9.1C581.08,63.94,579.4,66.82,577.59,69.55"/>
		<path clip-path="url(#SVGID_2_)" fill="#3A1415" d="M145.62,23.44c-3.2-10.63-14.2-22.68-26.06-22.68H68.08
			c-10.82,0-14.77,1.52-17.13,2.73c-5.29,2.58-32.52,16.37-32.52,16.37l0.01,0.01C8.17,26.16,0.98,38.06,0.98,48.63
			c0,8.63,4.77,18.18,12.13,24.82v31.52c0,16.63,4.03,18.25,18.2,18.25h54.61c3.47,0,6.68-1.05,9.44-2.73l0.04,0.04l30.72-18.39
			c0,0-0.02-0.06-0.04-0.07c8.07-6.09,8.42-6.09,8.42-15.3c0,0,0-31.52,0-31.52c0-0.59,2.61-2.63,3.08-3.15
			c1.01-1.13,1.94-2.33,2.81-3.58c1.71-2.46,3.13-5.13,4.2-7.93C146.67,35.17,147.32,29.07,145.62,23.44"/>
	</g>
	<path fill="#DB2928" d="M96.01,64.71c-2.53,2.29-3.96,5.57-3.96,9v31.51c0,3.35-2.77,6.04-6.12,6.04H31.31
		c-3.33,0-6.09-2.7-6.09-6.04V73.71c0-3.43-1.44-6.7-3.97-9c-6.8-6.16-10.09-15.7-6.18-24.41c1.15-2.55,2.88-4.83,4.99-6.67
		c3.6-3.15,7.47-4.29,11.68-4.68c1.64-0.15,3.33-0.19,5.07-0.19c5.86,0,11.72,0.01,17.57,0.01c9.36,0,18.72,0.01,28.08,0.02
		c8.47,0,16.9,4.88,20.01,12.97C105.72,50.19,102.45,58.88,96.01,64.71"/>
	<path fill="#3A1415" d="M43.73,46.79c0-3.47-2.9-6.37-6.37-6.37c-3.47,0-6.37,2.9-6.37,6.37c0,3.47,2.9,6.37,6.37,6.37
		C40.83,53.16,43.73,50.26,43.73,46.79"/>
	<path fill="#3A1415" d="M75.88,51.89c-3.47,0-6.37,2.9-6.37,6.37c0,3.47,2.9,6.37,6.37,6.37c3.47,0,6.37-2.9,6.37-6.37
		C82.24,54.78,79.35,51.89,75.88,51.89"/>
	<path fill="#3A1415" d="M49.77,61.44c-3.47,0-6.37,2.9-6.37,6.37c0,3.47,2.9,6.37,6.37,6.37s6.37-2.9,6.37-6.37
		C56.14,64.33,53.24,61.44,49.77,61.44"/>
	<path fill="#3A1415" d="M71.1,87.22c-3.47,0-6.37,2.89-6.37,6.37s2.9,6.37,6.37,6.37c3.47,0,6.37-2.89,6.37-6.37
		C77.47,90.12,74.57,87.22,71.1,87.22"/>
	<path fill="#3A1415" d="M41.18,90.09c-3.47,0-6.37,2.89-6.37,6.37s2.9,6.37,6.37,6.37c3.47,0,6.37-2.89,6.37-6.37
		S44.65,90.09,41.18,90.09"/>
</g>
</svg>
